<svg xmlns="http://www.w3.org/2000/svg" xmlns:inkscape="http://www.inkscape.org/namespaces/inkscape" width="64" height="64" viewBox="40 40 410 390" role="img" aria-labelledby="rectangular-light-title rectangular-light-description">
  <title id="rectangular-light-title">hyperproc Spectral Ribbon — rectangular, light</title>
  <desc id="rectangular-light-description">Editable vector reconstruction: gradient hyperproc wordmark, seven spectral ribbons, a forest landscape in the o, orbit, and observation satellite.</desc>
  <defs>
    <linearGradient id="rectangular-light-word-gradient" x1="60" y1="0" x2="1740" y2="0" gradientUnits="userSpaceOnUse">
      <stop offset="0%" stop-color="#0B2D4D" />
      <stop offset="36%" stop-color="#0B2D4D" />
      <stop offset="65%" stop-color="#14A3A3" />
      <stop offset="100%" stop-color="#4CAF7A" />
    </linearGradient>
    <linearGradient id="rectangular-light-earth-gradient" x1="12%" y1="88%" x2="88%" y2="12%">
      <stop offset="0%" stop-color="#073C3E" />
      <stop offset="50%" stop-color="#18786D" />
      <stop offset="100%" stop-color="#4EAC90" />
    </linearGradient>
    <linearGradient id="rectangular-light-word-gradient-y" href="#rectangular-light-word-gradient" gradientTransform="translate(-299 -174)" />
    <linearGradient id="rectangular-light-word-gradient-p1" href="#rectangular-light-word-gradient" gradientTransform="translate(-511 -174)" />
    <linearGradient id="rectangular-light-word-gradient-e" href="#rectangular-light-word-gradient" gradientTransform="translate(-732 -174)" />
    <linearGradient id="rectangular-light-word-gradient-r1" href="#rectangular-light-word-gradient" gradientTransform="translate(-943 -174)" />
    <linearGradient id="rectangular-light-word-gradient-p2" href="#rectangular-light-word-gradient" gradientTransform="translate(-1081 -174)" />
    <linearGradient id="rectangular-light-word-gradient-r2" href="#rectangular-light-word-gradient" gradientTransform="translate(-1305 -174)" />
    <linearGradient id="rectangular-light-word-gradient-c" href="#rectangular-light-word-gradient" gradientTransform="translate(-1665 -174)" />
    <clipPath id="rectangular-light-word-landscape-clip">
      <circle r="65" />
    </clipPath>
  </defs>
  <g id="rectangular-light-rectangular-wordmark" aria-label="Rectangular identity" transform="translate(0 4)" inkscape:groupmode="layer" inkscape:label="Rectangular identity">
    <g id="rectangular-light-word-stems" aria-label="Spectral h — editable stems" fill="url(#rectangular-light-word-gradient)">
      <rect x="60" y="50" width="70" height="324" rx="9" />
      <rect x="263" y="181" width="63" height="211" rx="8" />
    </g>
    <g id="rectangular-light-word-ribbons" aria-label="Seven editable spectral ribbons">
      <path d="M60 206 C128 159 187 104 236 124 C268 137 292 176 309 207 C339 267 372 321 396 306 L414 286 L406 309 C391 331 369 338 345 308 C325 275 318 252 309 228 C284 188 264 159 234 145 C187 125 129 183 60 228 Z" id="rectangular-light-word-ribbon-1" fill="#6B3ED7" />
      <path d="M60 230 C128 183 187 128 236 148 C268 161 292 200 309 231 C339 283 372 329 396 314 L414 294 L406 317 C391 339 369 346 345 324 C325 299 318 276 309 252 C284 212 264 183 234 169 C187 149 129 207 60 252 Z" id="rectangular-light-word-ribbon-2" fill="#1F6FB2" />
      <path d="M60 254 C128 207 187 152 236 172 C268 185 292 224 309 255 C339 299 372 337 396 322 L414 302 L406 325 C391 347 369 354 345 340 C325 323 318 300 309 276 C284 236 264 207 234 193 C187 173 129 231 60 276 Z" id="rectangular-light-word-ribbon-3" fill="#14A3A3" />
      <path d="M60 278 C128 231 187 176 236 196 C268 209 292 248 309 279 C339 315 372 345 396 330 L414 310 L406 333 C391 355 369 362 345 356 C325 347 318 324 309 300 C284 260 264 231 234 217 C187 197 129 255 60 300 Z" id="rectangular-light-word-ribbon-4" fill="#4CAF7A" />
      <path d="M60 302 C128 255 187 200 236 220 C268 233 292 272 309 303 C339 331 372 353 396 338 L414 318 L406 341 C391 363 369 370 345 372 C325 371 318 348 309 324 C284 284 264 255 234 241 C187 221 129 279 60 324 Z" id="rectangular-light-word-ribbon-5" fill="#A7D38B" />
      <path d="M60 326 C128 279 187 224 236 244 C268 257 292 296 309 327 C339 347 372 361 396 346 L414 326 L406 349 C391 371 369 378 345 388 C325 395 318 372 309 348 C284 308 264 279 234 265 C187 245 129 303 60 348 Z" id="rectangular-light-word-ribbon-6" fill="#F4C542" />
      <path d="M60 350 C128 303 187 248 236 268 C268 281 292 320 309 351 C339 363 372 369 396 354 L414 334 L406 357 C391 379 369 386 345 404 C325 419 318 396 309 372 C284 332 264 303 234 289 C187 269 129 327 60 372 Z" id="rectangular-light-word-ribbon-7" fill="#F07F3C" />
    </g>
  </g>
</svg>
